# xmcd
#
# Track frame offsets:
#	182
#	12375
#	25810
#	35102
#	45660
#	57457
#	71952
#	85805
#	96587
#	109337
#	122412
#	135635
#	146790
#	158070
#	177392
#	189310
#	200400
#	212480
#	225980
#	239352
#	251692
#	265272
#	279377
#
# Disc length: 3927 seconds
#
# Revision: 0
# Processed by: cddbd v1.4PL0 Copyright (c) Steve Scherf et al.
# Submitted via: dBpowerAMP V4.0
#
DISCID=530f5517
DTITLE=Tammy Wynette - The Tammy Wynette Showcase
DYEAR=1994
DGENRE=Country
TTITLE0=Stand By Your Man
TTITLE1=D-I-V-O-R-C-E
TTITLE2=Your Good Girl's Gonna Go Bad
TTITLE3=They Call It Making Love
TTITLE4=I Don't Wanna Play House
TTITLE5=You Still Get To Me In My Dreams
TTITLE6=Darlin' Take Care Of Yourself
TTITLE7=Singing My Song
TTITLE8=Take Me To Your World
TTITLE9=My Man (Understands)
TTITLE10=Kids (Say The Darndest Things)
TTITLE11=The Ways To Love A Man
TTITLE12=Good Lovin' (Makes It Right)
TTITLE13=Bedtime Story
TTITLE14=When He Loves Me (He Loves Me All The Way)
TTITLE15=Run, Woman, Run
TTITLE16=Till Get It Right
TTITLE17=I Never Once Stopped Loving You
TTITLE18=Apartment No. 9
TTITLE19=Walk Through This World With Me
TTITLE20=Woman To Woman
TTITLE21=Starting Over
TTITLE22=You And Me
EXTD=Reader's Digest collection
EXTT0=
EXTT1=
EXTT2=
EXTT3=
EXTT4=
EXTT5=
EXTT6=
EXTT7=
EXTT8=
EXTT9=
EXTT10=
EXTT11=
EXTT12=
EXTT13=
EXTT14=
EXTT15=
EXTT16=
EXTT17=
EXTT18=
EXTT19=
EXTT20=
EXTT21=
EXTT22=
PLAYORDER=
